<?xml version="1.0" standalone="no"?>
<!DOCTYPE svg PUBLIC "-//W3C//DTD SVG 20010904//EN"
 "http://www.w3.org/TR/2001/REC-SVG-20010904/DTD/svg10.dtd">
<svg version="1.0" xmlns="http://www.w3.org/2000/svg"
 width="2000.000000pt" height="1247.000000pt" viewBox="0 0 2000.000000 1247.000000"
 preserveAspectRatio="xMidYMid meet">

<g transform="translate(0.000000,1247.000000) scale(0.100000,-0.100000)"
fill="#000000" stroke="none">
<path d="M11560 12464 c-19 -2 -98 -9 -175 -15 -894 -68 -1817 -360 -2610
-824 -269 -157 -584 -376 -799 -554 l-80 -66 273 -3 274 -2 176 118 c853 575
1775 899 2831 994 179 16 747 16 930 0 1290 -114 2416 -585 3390 -1418 148
-126 478 -456 604 -604 831 -972 1300 -2090 1418 -3380 16 -180 16 -766 0
-950 -67 -752 -247 -1416 -564 -2080 -378 -791 -955 -1510 -1666 -2075 -1164
-925 -2679 -1375 -4177 -1239 -725 65 -1399 254 -2052 574 -274 134 -430 223
-690 396 l-202 134 -272 -2 -273 -3 80 -66 c326 -271 739 -537 1154 -745 291
-145 478 -223 794 -330 471 -160 928 -256 1461 -306 189 -18 883 -18 1065 0
822 81 1516 274 2215 617 1383 679 2467 1847 3043 3280 225 560 355 1106 424
1775 18 169 18 921 0 1090 -69 670 -199 1214 -424 1775 -548 1364 -1555 2487
-2853 3183 -720 386 -1481 616 -2340 708 -141 15 -861 29 -955 18z"/>
<path d="M6850 10080 c-1281 -98 -2127 -665 -2371 -1589 -80 -305 -92 -769
-28 -1122 76 -423 258 -761 546 -1014 320 -280 691 -474 1333 -696 477 -164
798 -307 1015 -450 151 -100 277 -226 333 -336 78 -151 101 -314 68 -485 -63
-326 -281 -526 -668 -610 -91 -20 -132 -22 -358 -23 -203 0 -277 4 -365 18
-129 22 -246 57 -330 100 -122 61 -323 209 -462 340 -124 118 -147 133 -224
153 -77 20 -177 15 -474 -22 -398 -50 -478 -79 -503 -179 -37 -143 -12 -573
45 -779 33 -118 162 -292 313 -421 408 -349 937 -531 1665 -575 1116 -66 2017
205 2561 771 325 338 502 727 566 1239 17 134 16 563 0 690 -44 333 -137 589
-289 803 -70 98 -213 249 -308 327 -266 216 -714 439 -1330 660 -494 177 -916
364 -1102 489 -151 101 -249 233 -288 386 -22 87 -20 254 5 351 68 264 258
470 510 553 122 40 210 52 415 57 436 12 578 -44 894 -353 102 -101 135 -119
272 -147 143 -29 236 -37 514 -42 332 -7 348 -4 382 66 38 76 58 290 57 610 0
195 -3 288 -13 320 -55 192 -346 467 -658 624 -310 155 -595 237 -963 277
-130 14 -619 20 -760 9z"/>
<path d="M12975 10080 c-704 -52 -1293 -254 -1716 -591 -115 -92 -288 -273
-371 -390 -260 -365 -379 -837 -348 -1380 33 -575 187 -967 505 -1285 296
-296 703 -527 1295 -733 639 -222 895 -335 1149 -504 125 -84 251 -208 304
-297 103 -178 123 -411 52 -619 -39 -115 -74 -170 -170 -267 -78 -79 -104 -97
-195 -143 -194 -95 -383 -127 -710 -118 -361 10 -540 57 -750 199 -154 104
-213 151 -331 264 -69 66 -126 111 -165 130 -56 27 -66 29 -179 28 -227 -2
-688 -69 -782 -115 -36 -17 -50 -32 -67 -68 -19 -42 -21 -64 -21 -261 0 -177
4 -241 23 -360 28 -175 48 -236 107 -333 127 -210 445 -462 745 -593 215 -93
523 -179 760 -213 218 -32 341 -41 610 -48 585 -14 1085 65 1540 244 690 272
1161 792 1323 1464 109 451 95 1023 -35 1413 -124 372 -407 694 -808 921 -296
168 -582 293 -1109 485 -364 133 -583 224 -811 340 -169 86 -247 136 -321 207
-279 266 -258 724 47 1030 59 59 90 80 175 121 173 83 326 112 584 112 395 -1
526 -54 816 -335 58 -57 123 -112 145 -123 109 -55 314 -82 674 -88 262 -5
288 -4 320 13 51 27 71 70 86 186 44 336 39 746 -11 855 -57 125 -180 258
-370 402 -295 223 -723 380 -1185 435 -160 19 -629 28 -805 15z"/>
</g>
</svg>
